<svg width="243" height="394" viewBox="0 0 243 394" fill="none" xmlns="http://www.w3.org/2000/svg">
<g clip-path="url(#clip0_39_2)">
<path d="M200.583 294.201L209.843 291.26L202.76 254.599L189.094 258.94L200.583 294.201Z" fill="#A0616A"/>
<path d="M208.794 285.829L208.785 285.831L199.077 289.555L199.067 289.557L196.821 290.423L201.827 311.735L202.093 312.877L208.675 310.792L208.521 309.619L207.844 304.285L211.947 308.534L212.838 309.462L230.277 303.932C231.314 303.603 232.132 302.896 232.614 302.005C233.144 301.069 233.29 299.922 232.924 298.818C232.553 295.193 215.667 292.455 213.19 291.102L211.175 284.905L208.794 285.829Z" fill="#2F2E41"/>
<path d="M183.589 166.857C185.091 168.081 186.146 169.757 186.592 171.629L188.58 180.01L209.551 269.401L186.597 277.921C171.812 248.788 162.98 230.529 162.48 210.044C162.34 204.369 162.846 198.513 164.036 192.21C164.036 192.21 149.09 202.255 131.328 213.751C129.768 214.759 128.184 215.785 126.578 216.807C111.844 226.282 95.9609 236.217 85.3692 242.038C78.925 245.581 72.7592 245.553 67.2277 243.388C51.4374 237.252 40.6773 213.833 42.7671 206.574L66.6212 171.52L96.1314 186.046L99.2161 187.562L150.829 157.655C158.36 153.292 167.85 154.039 174.585 159.524L183.589 166.857Z" fill="#2F2E41"/>
<path d="M88.3845 91.0301C88.3845 91.0301 75.1236 63.244 70.7323 73.1716C67.8747 79.632 49.7571 112.246 49.6992 125.428C49.6704 131.993 55.3323 137.204 61.9477 136.713L116.849 132.644L114.702 117.681L71.2347 120.851L88.3845 91.0301Z" fill="#A0616A"/>
<path d="M111.487 127.578C114.258 132.743 120.724 134.734 125.93 132.024C131.136 129.314 133.111 122.93 130.34 117.764C127.569 112.599 121.103 110.608 115.897 113.318C110.691 116.028 108.717 122.412 111.487 127.578Z" fill="#A0616A"/>
<path d="M87.4933 161.613L97.0719 192.455L53.4863 197.107L69.0324 157.776L87.4933 161.613Z" fill="#A0616A"/>
<path d="M98.1619 137.746C97.1223 145.075 96.8794 152.001 98.1814 155.857C98.5276 156.883 103.712 164.378 104.011 165.45C106.687 175.028 95.2665 176.962 95.2665 176.962L51.4528 191.323C48.9299 192.15 46.8062 189.265 48.4181 187.178C52.0117 182.525 55.2944 175.802 55.0605 166.899C54.696 153.024 48.4768 130.958 45.0392 119.738C43.6246 115.121 43.9657 110.159 45.9915 105.77L50.8825 95.1715L57.9948 79.7747L60.2879 68.5604L80.6921 69.5197L83.2086 78.6427L102.194 107.259C102.962 108.42 103.467 109.715 103.691 111.048C103.992 112.717 103.846 114.463 103.253 116.104C101.281 121.562 99.2696 129.879 98.1619 137.746Z" fill="#F9A826"/>
<path d="M41.4672 56.4703C49.6192 66.5046 35.1614 82.6594 44.0226 92.0893C42.3223 92.7608 40.5053 93.0198 38.6786 92.9335C38.5912 92.6265 38.494 92.3195 38.3968 92.0221C37.6098 89.6047 36.5605 87.2736 35.2488 85.0864C35.5014 87.4654 35.3071 89.9021 34.6658 92.214C33.2958 91.8015 31.9744 91.2067 30.7501 90.4777C30.5947 90.3913 30.4586 90.305 30.3032 90.1995C26.3 82.8224 24.7552 74.1407 26.1641 65.8907C23.4629 69.7375 20.8589 73.7762 19.421 78.2178C14.5531 70.62 11.1718 61.9575 11.3856 53.0168C11.5994 43.0688 17.021 32.8618 26.2321 28.8135C30.0311 27.1443 34.5395 26.3961 37.192 23.2304C38.6204 21.542 39.3004 19.3739 40.3304 17.417C41.3603 15.46 42.9635 13.5606 45.1788 13.244C46.5003 13.0617 47.9091 13.7812 48.6378 14.8172C45.0525 18.6928 45.2565 24.9859 46.4225 30.2716C47.6662 35.9508 51.4264 42.992 47.5885 47.3953C45.2274 50.1101 33.665 46.8772 41.4672 56.4703Z" fill="#2F2E41"/>
<path d="M88.9052 47.9057C88.3789 46.087 92.0064 57.2041 90.256 57.4048C82.2835 58.3078 71.3393 63.0088 65.7865 65.2019C65.5364 65.1732 65.2863 65.1446 65.0437 65.1088C64.4479 65.0443 63.8669 64.9511 63.2932 64.8436C50.3637 62.4283 45.3916 42.8188 45.3916 42.6397C45.3916 41.7581 47.5345 17.5459 50.9103 17.1875C51.7855 17.0943 52.6755 17.0441 53.5801 17.0441H61.9571C63.7369 16.6714 65.5021 16.4134 67.2157 16.2916H67.2304C91.3767 13.5731 103.036 24.0479 96.1491 37.5205C96.1418 37.5349 96.127 37.5492 96.1197 37.5636C95.7593 38.0939 95.443 38.5956 95.1636 39.0758C94.8914 39.5273 94.6634 39.9573 94.4649 40.3659C92.9277 43.5194 96.879 47.4875 94.259 48.2282C90.7744 49.2133 103.424 81.591 89.6311 81.591C96.3401 83.4743 90.357 52.9226 88.9052 47.9057Z" fill="#2F2E41"/>
<path d="M73.8512 66.9036C84.805 66.9036 93.6848 58.1364 93.6848 47.3216C93.6848 36.5067 84.805 27.7395 73.8512 27.7395C62.8974 27.7395 54.0176 36.5067 54.0176 47.3216C54.0176 58.1364 62.8974 66.9036 73.8512 66.9036Z" fill="#A0616A"/>
<path d="M96.1499 38.5889C95.8196 38.7616 95.499 38.915 95.1686 39.0781C94.8188 39.2412 94.469 39.4043 94.129 39.5578C91.9136 40.5459 89.8343 41.2461 87.93 41.5627C87.3955 39.9127 86.6765 38.3203 85.7827 36.8238C85.9576 38.4833 85.8118 40.1813 85.3551 41.7929C82.7026 41.745 80.4776 40.7569 78.7967 38.5889C78.7092 36.3537 78.204 34.1281 77.2906 32.0656C77.4655 34.3487 76.8242 36.6798 75.5417 38.5889L75.8818 65.4398C69.0804 69.9006 83.7714 84.9425 81.7115 88.4632C81.1189 88.396 60.9187 63.4157 60.3454 63.3102C47.413 60.8928 39.2028 39.8647 40.2521 38.6752C40.2521 35.1738 41.078 31.8738 42.5549 28.9191C44.469 25.0819 47.4713 21.8586 51.1927 19.6426C53.3789 18.5969 55.6913 17.7432 58.0913 17.0908C58.1496 17.0716 58.1981 17.0621 58.2564 17.0429C58.9851 16.851 59.7333 16.6687 60.4717 16.5249C61.9972 16.2083 63.5421 15.9685 65.1161 15.8245C65.2327 15.8149 65.3396 15.8149 65.4465 15.8149C66.0877 15.8149 66.6901 15.9877 67.2149 16.2946H67.2343C67.6132 16.5249 67.9533 16.8127 68.2156 17.1676C68.6723 17.7432 68.9346 18.453 68.9346 19.2397H76.2898C76.5619 19.2397 76.834 19.2397 77.106 19.2589C87.3567 19.6618 95.5865 27.6144 96.1208 37.5624C96.1402 37.9078 96.1499 38.2435 96.1499 38.5889Z" fill="#2F2E41"/>
<path d="M65.8508 19.4279C65.8508 26.5528 60.0007 32.3286 52.7843 32.3286C45.5679 32.3286 39.7178 26.5528 39.7178 19.4279C39.7178 12.303 45.5679 6.5271 52.7843 6.5271C60.0007 6.5271 65.8508 12.303 65.8508 19.4279Z" fill="#2F2E41"/>
<path d="M86.5697 107.649C86.5697 107.649 65.3044 85.3371 64.2222 96.1376C63.518 103.166 56.4531 139.792 60.505 152.344C62.5228 158.595 69.5295 161.796 75.6667 159.28L126.599 138.4L119.896 124.837L79.5546 141.319L86.5697 107.649Z" fill="#A0616A"/>
<path d="M127.378 138.347C133.281 138.347 138.066 133.623 138.066 127.795C138.066 121.967 133.281 117.243 127.378 117.243C121.476 117.243 116.69 121.967 116.69 127.795C116.69 133.623 121.476 138.347 127.378 138.347Z" fill="#A0616A"/>
<path d="M73.79 361.463L81.6075 367.177L107.652 340.126L96.1137 331.692L73.79 361.463Z" fill="#A0616A"/>
<path d="M83.6872 369.774L87.611 364.541L85.463 363.163L76.7304 357.537L74.7063 356.239L60.0846 372.681L59.3008 373.562L64.8514 377.62L65.7294 376.817L69.7158 373.166L68.6171 378.928L68.3734 380.195L83.0893 390.952C83.9681 391.595 85.0221 391.84 86.0309 391.709C87.1171 391.584 88.1448 391.032 88.8444 390.099C91.6134 387.689 84.0186 372.551 83.6872 369.774Z" fill="#2F2E41"/>
<path d="M169.11 280.567L167.138 282.802L161.405 289.287L100.125 358.271L79.7206 344.84C95.0529 315.984 104.915 298.247 121.471 285.891C126.058 282.466 131.168 279.454 137.047 276.73C137.047 276.73 120.063 270.609 100.241 263.079C98.5022 262.417 96.7338 261.745 94.9557 261.055C78.5643 254.771 61.1236 247.835 50.1539 242.741C43.4788 239.643 39.9032 234.683 38.4555 228.985C34.2872 212.744 47.2681 190.45 54.4582 187.888L97.2099 186.555L102.486 218.692L103.04 222.049C103.04 222.049 118.702 229.522 135.142 236.995C137.61 238.108 140.088 239.23 142.536 240.324C146.423 242.051 150.212 243.72 153.73 245.226C153.81 245.26 153.89 245.295 153.971 245.329C164.164 249.676 170.509 259.857 169.77 270.796L169.11 280.567Z" fill="#2F2E41"/>
<path d="M131.09 136.297C131.458 136.297 131.822 136.224 132.155 136.085L191.559 137.42C192.014 137.23 192.394 136.922 192.647 136.538C192.901 136.154 193.016 135.711 192.977 135.268C192.939 134.825 192.749 134.402 192.432 134.056C192.115 133.71 191.687 133.457 191.204 133.33L152.34 123.122C151.938 123.016 151.512 123.002 151.101 123.08L90.9863 129.535C90.4544 129.636 89.9746 129.888 89.6204 130.252C89.2662 130.616 89.0569 131.072 89.0245 131.551C88.9921 132.029 89.1384 132.504 89.441 132.903C89.7437 133.301 90.186 133.602 90.7005 133.758L130.276 136.176C130.537 136.256 130.813 136.297 131.09 136.297Z" fill="#3F3D56"/>
<path d="M133.823 135.869C134.756 135.869 135.68 135.712 136.54 135.408L191.586 136.461C193.039 135.953 194.245 135.05 195.009 133.897C195.773 132.744 196.051 131.408 195.797 130.107L197.843 89.6021C197.572 88.1553 196.663 86.8463 195.296 85.9336C193.929 85.0209 192.203 84.5708 190.459 84.6722L139.355 86.4481C138.374 86.502 137.418 86.7281 136.548 87.1116C135.678 87.4952 134.914 88.0276 134.305 88.6745C133.697 89.3214 133.257 90.0682 133.015 90.8666C132.774 91.665 132.735 92.497 132.901 93.3088L126.914 130.985C127.195 132.35 128.043 133.589 129.306 134.482C130.57 135.375 132.169 135.867 133.823 135.869Z" fill="#3F3D56"/>
</g>
<defs>
<clipPath id="clip0_39_2">
<rect width="844" height="671" fill="white" transform="translate(-150 -277)"/>
</clipPath>
</defs>
</svg>
