<svg width="668" height="532" viewBox="0 0 668 532" fill="none" xmlns="http://www.w3.org/2000/svg">
<g clip-path="url(#clip0_201_9)">
<path d="M177.274 122.143L97.8213 111.55L113.9 30.1226L199.252 46.9762L177.274 122.143Z" fill="#2F2E41"/>
<path d="M100.898 474.415V138.495C100.898 132.407 105.851 127.455 111.938 127.455H656.858C662.946 127.455 667.898 132.407 667.898 138.495V474.415C667.898 480.502 662.946 485.455 656.858 485.455H111.938C105.851 485.455 100.898 480.502 100.898 474.415ZM665.898 138.495C665.898 133.502 661.851 129.455 656.858 129.455H111.938C106.946 129.455 102.898 133.502 102.898 138.495V474.415C102.898 479.407 106.946 483.455 111.938 483.455H499.265C591.294 483.455 665.898 408.85 665.898 316.821V138.495Z" fill="#3F3D56"/>
<path d="M612.727 177.751L604.497 173.852C607.873 178.563 610.781 185.92 612.338 191.774C614.975 186.321 619.225 179.648 623.432 175.663L614.734 177.9C620.094 151.632 640.253 132.774 663.338 132.774L663.665 131.826C639.552 131.826 618.199 150.422 612.727 177.751Z" fill="#3F3D56"/>
<path d="M650.606 217.774H598.606C596.401 217.774 594.606 215.98 594.606 213.774C594.606 211.569 596.401 209.774 598.606 209.774H650.606C652.812 209.774 654.606 211.569 654.606 213.774C654.606 215.98 652.812 217.774 650.606 217.774Z" fill="#F9A826"/>
<path d="M496.216 247.818V353.818C496.216 363.192 488.59 370.818 479.216 370.818H373.216C363.842 370.818 356.216 363.192 356.216 353.818V247.818C356.216 238.444 363.842 230.818 373.216 230.818H479.216C488.59 230.818 496.216 238.444 496.216 247.818ZM472.64 368.818C484.556 368.818 494.216 359.158 494.216 347.242V300.377C494.216 263.065 463.969 232.818 426.657 232.818H373.216C364.932 232.818 358.216 239.534 358.216 247.818V339.029C358.216 355.481 371.553 368.818 388.005 368.818H472.64Z" fill="#3F3D56"/>
<path d="M440.326 274.11H406.106C405.243 274.11 404.541 273.408 404.541 272.545C404.541 271.683 405.243 270.981 406.106 270.981H440.326C441.189 270.981 441.891 271.683 441.891 272.545C441.891 273.408 441.189 274.11 440.326 274.11Z" fill="#3F3D56"/>
<path d="M440.326 307.474H406.106C405.243 307.474 404.541 306.772 404.541 305.909C404.541 305.046 405.243 304.344 406.106 304.344H440.326C441.189 304.344 441.891 305.046 441.891 305.909C441.891 306.772 441.189 307.474 440.326 307.474Z" fill="#3F3D56"/>
<path d="M423.326 353.474H389.106C388.243 353.474 387.541 352.772 387.541 351.909C387.541 351.046 388.243 350.344 389.106 350.344H423.326C424.189 350.344 424.891 351.046 424.891 351.909C424.891 352.772 424.189 353.474 423.326 353.474Z" fill="#3F3D56"/>
<path d="M458.689 290.803H387.742C386.88 290.803 386.178 290.101 386.178 289.238C386.178 288.375 386.88 287.674 387.742 287.674H458.689C459.552 287.674 460.254 288.375 460.254 289.238C460.254 290.101 459.552 290.803 458.689 290.803Z" fill="#3F3D56"/>
<path d="M183.62 302.62H66.3447C76.1745 280.685 82.2178 259.796 72.7706 243.179L183.62 236.753C178.08 259.185 177.403 281.198 183.62 302.62Z" fill="#FFB6B6"/>
<path d="M224.01 485.454H137.794C137.171 485.454 136.602 485.098 136.33 484.537L135.805 483.454L124.347 459.936C123.61 458.422 121.34 458.888 121.258 460.571L120.155 483.454L120.132 483.908C120.089 484.774 119.374 485.454 118.506 485.454H33.6199C32.7622 485.454 32.0511 484.787 31.9948 483.931C31.9843 483.772 31.9741 483.613 31.9645 483.454C26.5446 399.804 46.0345 343.104 57.4645 317.734L57.4745 317.724C61.9645 307.744 65.2245 302.614 65.2245 302.614L66.3545 302.604H66.3646L89.1945 302.204H89.2045L109.425 301.864L124.705 301.614L130.835 301.504H130.845L134.685 301.444L153.775 301.114L170.825 300.824L183.065 300.624H183.405L185.225 308.474V308.484L185.295 308.834V308.844L185.605 310.134L185.615 310.174L186.235 312.884V312.904L186.275 313.054V313.064L186.425 313.714L186.435 313.744L187.875 319.974L190.205 330.104L193.275 343.354L197.145 360.174L199.105 368.644L201.795 380.314L225.595 483.454C225.835 484.476 225.059 485.454 224.01 485.454Z" fill="#2F2E41"/>
<path d="M166.689 107.284L120.018 105.655L101.57 130.394L91.8625 132.502C77.3114 135.662 67.3294 149.082 68.4889 163.927L72.8985 266.775L74.8985 278.775L184.899 296.775L209.632 141.127L177.086 129.434L166.689 107.284Z" fill="#F9A826"/>
<path d="M149.656 103.383C172.793 103.383 191.549 84.6266 191.549 61.4899C191.549 38.3532 172.793 19.5972 149.656 19.5972C126.52 19.5972 107.764 38.3532 107.764 61.4899C107.764 84.6266 126.52 103.383 149.656 103.383Z" fill="#9F626B"/>
<path d="M616.184 481.565L579.865 468.068C574.418 466.043 571.633 459.965 573.658 454.517L609.338 358.507C611.363 353.06 617.442 350.275 622.889 352.299L659.208 365.797C664.655 367.821 667.44 373.9 665.415 379.347C651.763 418.153 636.871 461.757 629.735 475.357C627.71 480.805 621.631 483.589 616.184 481.565Z" fill="#3F3D56"/>
<path d="M656.469 404.972C656.238 404.886 655.981 405.004 655.896 405.234L650.925 418.608C650.84 418.839 650.958 419.096 651.188 419.182C651.419 419.267 651.676 419.15 651.761 418.919L656.731 405.545C656.817 405.315 656.699 405.057 656.469 404.972Z" fill="#3F3D56"/>
<path d="M664.475 378.998L628.795 475.006C627.033 479.748 621.901 482.255 617.123 480.821L617.121 480.821C617.05 480.799 616.98 480.778 616.908 480.753C616.782 480.714 616.658 480.67 616.533 480.623C616.533 480.623 616.086 480.419 615.269 480.044C614.444 479.666 613.244 479.113 611.749 478.418C611.301 478.21 610.829 477.99 610.33 477.757C609.337 477.293 608.247 476.783 607.08 476.231C606.614 476.012 606.133 475.784 605.642 475.551C603.13 474.363 600.32 473.021 597.365 471.585C596.864 471.345 596.361 471.1 595.853 470.852C595.721 470.787 574.182 455.985 574.599 454.865L610.279 358.857C612.114 353.919 617.603 351.404 622.541 353.239L627.878 355.223C628.73 355.54 629.169 356.459 628.926 357.337C628.911 357.395 628.896 357.454 628.886 357.514C628.723 358.426 629.285 359.313 630.154 359.636L648.914 366.608C649.783 366.931 650.788 366.627 651.26 365.829C651.292 365.777 651.319 365.723 651.346 365.669C651.735 364.845 652.668 364.436 653.52 364.752L658.857 366.736C663.795 368.571 666.31 374.06 664.475 378.998Z" fill="#F9A826"/>
<path d="M603.404 373.836C603.174 373.75 602.917 373.868 602.831 374.098L601.589 377.442C601.503 377.672 601.621 377.929 601.851 378.015C602.082 378.101 602.339 377.983 602.424 377.752L603.667 374.409C603.753 374.178 603.635 373.921 603.404 373.836Z" fill="#3F3D56"/>
<path d="M599.677 383.866C599.446 383.78 599.189 383.898 599.103 384.128L596.696 390.606C596.61 390.837 596.728 391.094 596.959 391.18C597.189 391.265 597.446 391.148 597.532 390.917L599.939 384.439C600.025 384.209 599.907 383.952 599.677 383.866Z" fill="#3F3D56"/>
<path d="M596.26 393.06C596.029 392.975 595.772 393.093 595.686 393.323L593.279 399.801C593.193 400.032 593.311 400.289 593.542 400.374C593.772 400.46 594.029 400.342 594.115 400.112L596.522 393.634C596.608 393.403 596.49 393.146 596.26 393.06Z" fill="#3F3D56"/>
<path d="M627.186 356.632L619.198 353.663C619.153 353.646 619.104 353.669 619.087 353.714L618.759 354.597C618.742 354.642 618.765 354.691 618.81 354.708L626.798 357.676C626.843 357.693 626.892 357.67 626.909 357.626L627.237 356.742C627.254 356.698 627.231 356.648 627.186 356.632Z" fill="#E6E6E6"/>
<path d="M654.22 367.808C654.712 367.808 655.112 367.408 655.112 366.916C655.112 366.423 654.712 366.024 654.22 366.024C653.727 366.024 653.328 366.423 653.328 366.916C653.328 367.408 653.727 367.808 654.22 367.808Z" fill="#E6E6E6"/>
<path d="M656.519 368.662C657.011 368.662 657.41 368.263 657.41 367.77C657.41 367.278 657.011 366.878 656.519 366.878C656.026 366.878 655.627 367.278 655.627 367.77C655.627 368.263 656.026 368.662 656.519 368.662Z" fill="#E6E6E6"/>
<path d="M658.817 369.516C659.309 369.516 659.708 369.117 659.708 368.624C659.708 368.132 659.309 367.733 658.817 367.733C658.324 367.733 657.925 368.132 657.925 368.624C657.925 369.117 658.324 369.516 658.817 369.516Z" fill="#E6E6E6"/>
<path d="M527.137 178.394H495.775C491.739 178.394 488.456 175.11 488.456 171.075V135.712C488.456 131.677 491.739 128.394 495.775 128.394H527.137C531.173 128.394 534.456 131.677 534.456 135.712V171.075C534.456 175.11 531.173 178.394 527.137 178.394Z" fill="white"/>
<path d="M527.137 178.394H495.775C491.739 178.394 488.456 175.11 488.456 171.075C486.879 158.053 486.445 145.926 488.456 135.712C488.456 131.677 491.739 128.394 495.775 128.394H527.137C531.173 128.394 534.456 131.677 534.456 135.712V171.075C534.456 175.11 531.173 178.394 527.137 178.394ZM495.775 129.394C492.291 129.394 489.456 132.228 489.456 135.712V171.075C489.456 174.559 492.291 177.394 495.775 177.394H527.137C530.622 177.394 533.456 174.559 533.456 171.075V135.712C533.456 132.228 530.622 129.394 527.137 129.394H495.775Z" fill="#3F3D56"/>
<path d="M523.969 149.894H498.127C497.031 149.894 496.14 149.002 496.14 147.906C496.14 146.81 497.031 145.918 498.127 145.918H523.969C525.065 145.918 525.956 146.81 525.956 147.906C525.956 149.002 525.065 149.894 523.969 149.894Z" fill="#F9A826"/>
<path d="M523.969 160.894H498.127C497.031 160.894 496.14 160.002 496.14 158.906C496.14 157.81 497.031 156.918 498.127 156.918H523.969C525.065 156.918 525.956 157.81 525.956 158.906C525.956 160.002 525.065 160.894 523.969 160.894Z" fill="#F9A826"/>
<path d="M523.969 138.894H498.127C497.031 138.894 496.14 138.002 496.14 136.906C496.14 135.81 497.031 134.918 498.127 134.918H523.969C525.065 134.918 525.956 135.81 525.956 136.906C525.956 138.002 525.065 138.894 523.969 138.894Z" fill="#F9A826"/>
<path d="M135.413 116.425C137.708 120.752 140.791 124.202 144.059 126.435L163.323 169.041L183.329 159.281L161.633 117.112C161.618 113.154 160.49 108.667 158.195 104.34C152.951 94.4536 143.599 89.1447 137.308 92.4819C131.017 95.8191 130.168 106.539 135.413 116.425Z" fill="#9F626B"/>
<path d="M178.79 143.28C178.79 143.28 208.131 127.904 217.235 144.048C225.002 157.823 230.614 226.75 232.095 246.688C232.355 250.188 231.442 253.664 229.499 256.586C223.745 265.241 211.34 266.066 204.491 258.25L145.035 141.183L173.237 127.78L180.135 144.485L178.79 143.28Z" fill="#F9A826"/>
<path d="M241.521 308.202C242.165 307.289 242.544 306.177 242.544 304.974V202.381C242.544 199.285 240.035 196.775 236.939 196.775H81.8586C78.7627 196.775 76.2529 199.285 76.2529 202.381V304.974C76.2529 306.177 76.6326 307.289 77.2767 308.202H57.9082V313.58C125.248 317.346 192.909 317.346 260.889 313.58V308.202H241.521Z" fill="#3F3D56"/>
<path d="M408.137 531.394H376.775C372.739 531.394 369.456 528.11 369.456 524.075V488.712C369.456 484.677 372.739 481.394 376.775 481.394H408.137C412.173 481.394 415.456 484.677 415.456 488.712V524.075C415.456 528.11 412.173 531.394 408.137 531.394Z" fill="white"/>
<path d="M408.137 531.394H376.775C372.739 531.394 369.456 528.11 369.456 524.075C367.879 511.053 367.445 498.926 369.456 488.712C369.456 484.677 372.739 481.394 376.775 481.394H408.137C412.173 481.394 415.456 484.677 415.456 488.712V524.075C415.456 528.11 412.173 531.394 408.137 531.394ZM376.775 482.394C373.291 482.394 370.456 485.228 370.456 488.712V524.075C370.456 527.559 373.291 530.394 376.775 530.394H408.137C411.622 530.394 414.456 527.559 414.456 524.075V488.712C414.456 485.228 411.622 482.394 408.137 482.394H376.775Z" fill="#3F3D56"/>
<path d="M404.969 502.894H379.127C378.031 502.894 377.14 502.002 377.14 500.906C377.14 499.81 378.031 498.918 379.127 498.918H404.969C406.065 498.918 406.956 499.81 406.956 500.906C406.956 502.002 406.065 502.894 404.969 502.894Z" fill="#F9A826"/>
<path d="M404.969 513.894H379.127C378.031 513.894 377.14 513.002 377.14 511.906C377.14 510.81 378.031 509.918 379.127 509.918H404.969C406.065 509.918 406.956 510.81 406.956 511.906C406.956 513.002 406.065 513.894 404.969 513.894Z" fill="#F9A826"/>
<path d="M404.969 491.894H379.127C378.031 491.894 377.14 491.002 377.14 489.906C377.14 488.81 378.031 487.918 379.127 487.918H404.969C406.065 487.918 406.956 488.81 406.956 489.906C406.956 491.002 406.065 491.894 404.969 491.894Z" fill="#F9A826"/>
<path d="M134.539 294.628C129.64 294.654 125.154 295.784 121.66 297.644L74.9791 294.943L74.3438 317.194L121.765 317.538C125.278 319.36 129.777 320.443 134.675 320.417C145.866 320.358 154.907 314.537 154.87 307.416C154.832 300.294 145.73 294.569 134.539 294.628Z" fill="#9F626B"/>
<path d="M89.6892 132.578C89.6892 132.578 50.0068 128.157 39.8982 152.775C32.1763 171.581 12.1153 244.875 0.857915 286.838C-3.25782 302.18 7.93125 317.37 23.8031 317.999L93.8982 320.775L97.9526 289.766L47.8982 281.775L75.8982 197.775L89.6892 132.578Z" fill="#F9A826"/>
<path d="M191.561 29.1484C193.575 18.9464 181.211 14.9841 171.952 10.2503L164.091 3.60156C155.85 -0.61181 146.214 -1.15361 137.552 2.10938L110.52 11.1075C98.2504 15.7297 93.969 26.7328 86.8985 37.7747L75.0467 53.5971C68.0864 64.4669 70.1672 81.4369 71.7995 94.2406L72.4834 99.6058L65.9717 115.177L116.016 124.112L126.103 100.081L119.808 88.6594C117.575 84.6068 118.469 79.5455 121.955 76.5029C134.496 65.5584 136.898 46.7747 136.898 46.7747L147.5 56.124C155.205 59.0146 162.317 60.505 168.847 60.6182C176.029 60.7426 182.506 59.2012 188.292 56.0244L189.311 71.5151C186.32 89.8277 181.857 93.8545 161.747 107.864L185.95 131.998L187.084 122.17C189.783 98.7918 201.441 82.5209 204.596 63.7116C206.779 50.7054 201.741 37.5317 191.561 29.1484Z" fill="#2F2E41"/>
</g>
<defs>
<clipPath id="clip0_201_9">
<rect width="667.898" height="531.394" fill="white"/>
</clipPath>
</defs>
</svg>
