<svg width="869" height="700" viewBox="0 0 869 700" fill="none" xmlns="http://www.w3.org/2000/svg">
<g clip-path="url(#clip0_10_251)">
<path d="M360.82 595.432L370.35 592.367L363.06 554.15L348.995 558.675L360.82 595.432Z" fill="#A0616A"/>
<path d="M369.27 586.704L369.261 586.707L359.27 590.588L359.26 590.591L356.948 591.493L362.1 613.71L362.374 614.9L369.148 612.727L368.99 611.504L368.292 605.944L372.515 610.373L373.432 611.341L391.381 605.576C392.448 605.233 393.29 604.496 393.786 603.567C394.331 602.592 394.482 601.396 394.105 600.245C393.724 596.466 376.344 593.612 373.795 592.202L371.721 585.742L369.27 586.704Z" fill="#2F2E41"/>
<path d="M343.329 462.686C344.876 463.962 345.961 465.709 346.42 467.661L348.466 476.397L370.05 569.58L346.425 578.462C331.209 548.092 322.119 529.059 321.605 507.705C321.46 501.789 321.981 495.685 323.205 489.115C323.205 489.115 307.823 499.585 289.542 511.569C287.938 512.62 286.307 513.689 284.654 514.755C269.49 524.631 253.143 534.988 242.242 541.056C235.609 544.75 229.264 544.721 223.571 542.464C207.319 536.067 196.245 511.655 198.396 504.087L222.946 467.547L253.318 482.689L256.493 484.269L309.613 453.094C317.364 448.545 327.131 449.324 334.063 455.042L343.329 462.686Z" fill="#2F2E41"/>
<path d="M839.897 282.138C847.397 268.338 852.267 254.808 854.007 242.328C847.054 241.515 840.903 242.081 835.532 243.884C844.779 228.476 850.953 209.499 842.917 199.758C837.857 194.388 831.317 190.368 823.587 187.698C826.087 176.128 826.117 165.288 823.267 155.758C810.047 111.388 722.547 191.328 666.707 156.728C643.297 142.228 618.097 160.498 597.687 189.878C600.487 199.648 605.657 208.728 612.917 215.858C603.667 215.198 594.567 212.478 586.467 207.958C564.627 247.148 551.427 296.208 558.037 318.388C562.327 332.778 572.597 342.448 587.007 347.428C584.507 358.998 638.524 442.053 648.477 441.966C674.937 441.737 683.165 381.635 700.831 458.656L661.477 698.966H718.477V451.135C734.337 426.647 750.72 443.026 788.477 423.966C904.287 365.507 854.916 301.074 839.897 282.138Z" fill="#F5E3DB"/>
<path d="M355.844 175.9C365.256 158.583 371.367 141.604 373.55 125.944C364.825 124.923 357.106 125.634 350.367 127.897C361.97 108.561 369.717 84.7479 359.634 72.5237C353.284 65.7851 345.077 60.7405 335.377 57.39C338.514 42.8711 338.552 29.2683 334.976 17.3094C318.386 -38.3693 208.585 61.9452 138.513 18.5266C109.136 0.330902 77.5135 23.2574 51.9016 60.1256C55.4153 72.3857 61.9029 83.7799 71.0133 92.7271C59.4057 91.899 47.9864 88.4857 37.8219 82.8137C10.4156 131.992 -6.14876 193.556 2.14593 221.389C7.5293 239.447 20.4169 251.581 38.4996 257.831C35.3624 272.35 103.146 376.573 115.636 376.464C148.84 376.176 159.165 300.756 181.334 397.407L131.95 698.966H203.478V387.97C223.38 357.24 243.938 377.794 291.319 353.877C436.645 280.517 374.691 199.662 355.844 175.9Z" fill="#F5E3DB"/>
<path d="M502.215 680.777C504.281 680.907 505.423 678.34 503.86 676.844L503.704 676.226C503.725 676.176 503.745 676.127 503.766 676.077C505.855 671.095 512.936 671.13 515.007 676.119C516.846 680.547 519.187 684.983 519.763 689.665C520.022 691.732 519.905 693.837 519.447 695.865C523.755 686.455 526.022 676.179 526.022 665.845C526.022 663.248 525.88 660.652 525.589 658.062C525.35 655.943 525.021 653.838 524.594 651.751C522.289 640.474 517.296 629.733 510.094 620.762C506.632 618.869 503.745 615.911 502.001 612.365C501.375 611.086 500.884 609.711 500.651 608.309C501.045 608.361 502.137 602.36 501.84 601.992C502.389 601.159 503.372 600.745 503.971 599.932C506.954 595.889 511.062 596.594 513.207 602.089C517.79 604.402 517.834 608.237 515.022 611.926C513.234 614.273 512.988 617.448 511.418 619.961C511.58 620.167 511.748 620.368 511.909 620.574C514.87 624.372 517.431 628.454 519.59 632.743C518.98 627.977 519.881 622.235 521.417 618.533C523.165 614.316 526.442 610.764 529.327 607.118C532.793 602.739 539.9 604.65 540.511 610.202C540.517 610.255 540.523 610.309 540.528 610.363C540.1 610.605 539.68 610.862 539.27 611.133C536.93 612.68 537.739 616.307 540.511 616.735L540.574 616.744C540.419 618.288 540.154 619.819 539.766 621.324C543.468 635.639 535.476 640.854 524.065 641.088C523.813 641.217 523.567 641.346 523.316 641.469C524.472 644.724 525.395 648.063 526.08 651.448C526.694 654.438 527.12 657.461 527.359 660.497C527.656 664.327 527.63 668.176 527.307 672L527.327 671.864C528.147 667.653 530.433 663.72 533.753 660.994C538.699 656.931 545.686 655.435 551.021 652.17C553.59 650.598 556.881 652.629 556.433 655.607L556.411 655.749C555.616 656.072 554.841 656.447 554.092 656.867C553.663 657.109 553.244 657.365 552.833 657.637C550.494 659.184 551.302 662.811 554.074 663.238L554.137 663.248C554.182 663.255 554.221 663.261 554.266 663.268C552.904 666.503 551.005 669.507 548.628 672.097C546.313 684.594 536.372 685.78 525.738 682.14H525.731C524.569 687.204 522.87 692.152 520.687 696.867H502.667C502.602 696.666 502.544 696.46 502.486 696.259C504.152 696.363 505.831 696.266 507.472 695.962C506.135 694.322 504.798 692.668 503.461 691.028C503.429 690.995 503.403 690.963 503.377 690.931C502.699 690.091 502.014 689.258 501.336 688.418L501.336 688.417C501.293 685.84 501.603 683.27 502.215 680.777Z" fill="#F5E3DB"/>
<path d="M606.606 674.963C609.419 675.139 610.973 671.644 608.845 669.608L608.634 668.766C608.661 668.699 608.689 668.631 608.718 668.564C611.562 661.782 621.202 661.829 624.022 668.621C626.525 674.649 629.711 680.688 630.496 687.062C630.848 689.876 630.69 692.742 630.065 695.504C635.93 682.692 639.017 668.702 639.017 654.634C639.017 651.099 638.823 647.564 638.427 644.038C638.102 641.154 637.654 638.287 637.073 635.447C633.934 620.095 627.137 605.472 617.333 593.258C612.62 590.682 608.689 586.655 606.315 581.827C605.462 580.086 604.794 578.213 604.478 576.305C605.014 576.376 606.5 568.207 606.095 567.706C606.843 566.571 608.181 566.008 608.997 564.901C613.057 559.396 618.651 560.357 621.571 567.838C627.809 570.986 627.87 576.208 624.042 581.229C621.607 584.424 621.272 588.747 619.135 592.168C619.355 592.449 619.584 592.722 619.804 593.003C623.835 598.174 627.321 603.731 630.261 609.57C629.43 603.081 630.656 595.264 632.747 590.225C635.127 584.483 639.588 579.648 643.516 574.684C648.235 568.723 657.911 571.324 658.742 578.882C658.75 578.955 658.758 579.028 658.766 579.102C658.182 579.431 657.611 579.78 657.052 580.15C653.867 582.256 654.968 587.193 658.742 587.776L658.827 587.789C658.616 589.891 658.256 591.975 657.728 594.023C662.768 613.513 651.888 620.611 636.352 620.93C636.009 621.106 635.675 621.282 635.332 621.449C636.906 625.88 638.164 630.426 639.096 635.034C639.931 639.105 640.511 643.22 640.837 647.353C641.241 652.567 641.206 657.808 640.766 663.013L640.793 662.829C641.909 657.096 645.022 651.741 649.542 648.03C656.275 642.499 665.787 640.463 673.051 636.017C676.547 633.877 681.028 636.642 680.417 640.696C680.408 640.761 680.398 640.825 680.388 640.89C679.306 641.33 678.251 641.84 677.231 642.411C676.648 642.741 676.076 643.09 675.518 643.459C672.333 645.566 673.433 650.503 677.207 651.086L677.293 651.099C677.354 651.108 677.407 651.116 677.468 651.125C675.613 655.53 673.028 659.619 669.792 663.145C666.641 680.159 653.107 681.773 638.63 676.818H638.621C637.038 683.712 634.726 690.448 631.753 696.867H607.221C607.133 696.594 607.054 696.313 606.975 696.04C609.243 696.181 611.53 696.049 613.763 695.636C611.943 693.402 610.123 691.151 608.302 688.918C608.259 688.874 608.223 688.83 608.188 688.786C607.265 687.643 606.333 686.508 605.41 685.365L605.409 685.364C605.351 681.855 605.773 678.357 606.606 674.963Z" fill="#F5E3DB"/>
<path d="M744.215 680.777C746.281 680.907 747.423 678.34 745.86 676.844L745.704 676.226C745.725 676.176 745.745 676.127 745.766 676.077C747.855 671.095 754.936 671.13 757.007 676.119C758.846 680.547 761.187 684.983 761.763 689.665C762.022 691.732 761.905 693.837 761.447 695.865C765.755 686.455 768.022 676.179 768.022 665.845C768.022 663.248 767.88 660.652 767.589 658.062C767.35 655.943 767.021 653.838 766.594 651.751C764.289 640.474 759.296 629.733 752.094 620.762C748.632 618.869 745.745 615.911 744.001 612.365C743.375 611.086 742.884 609.711 742.651 608.309C743.045 608.361 744.137 602.36 743.84 601.992C744.389 601.159 745.372 600.745 745.971 599.932C748.954 595.889 753.062 596.594 755.207 602.089C759.79 604.402 759.834 608.237 757.022 611.926C755.234 614.273 754.988 617.448 753.418 619.961C753.58 620.167 753.748 620.368 753.909 620.574C756.87 624.372 759.431 628.454 761.59 632.743C760.98 627.977 761.881 622.235 763.417 618.533C765.165 614.316 768.442 610.764 771.327 607.118C774.793 602.739 781.9 604.65 782.511 610.202C782.517 610.255 782.523 610.309 782.528 610.363C782.1 610.605 781.68 610.862 781.27 611.133C778.93 612.68 779.739 616.307 782.511 616.735L782.574 616.744C782.419 618.288 782.154 619.819 781.766 621.324C785.468 635.639 777.476 640.854 766.065 641.088C765.813 641.217 765.567 641.346 765.315 641.469C766.472 644.724 767.395 648.063 768.08 651.448C768.693 654.438 769.12 657.461 769.359 660.497C769.656 664.327 769.63 668.176 769.307 672L769.326 671.864C770.147 667.653 772.433 663.72 775.753 660.994C780.699 656.931 787.686 655.435 793.021 652.17C795.59 650.598 798.881 652.629 798.433 655.607L798.411 655.749C797.616 656.072 796.841 656.447 796.092 656.867C795.663 657.109 795.244 657.365 794.833 657.637C792.494 659.184 793.302 662.811 796.074 663.238L796.137 663.248C796.182 663.255 796.221 663.261 796.266 663.268C794.904 666.503 793.005 669.507 790.628 672.097C788.313 684.594 778.372 685.78 767.738 682.14H767.731C766.569 687.204 764.87 692.152 762.687 696.867H744.667C744.602 696.666 744.544 696.46 744.486 696.259C746.152 696.363 747.831 696.266 749.472 695.962C748.135 694.322 746.798 692.668 745.461 691.028C745.429 690.995 745.403 690.963 745.377 690.931C744.699 690.091 744.014 689.258 743.336 688.418L743.336 688.417C743.293 685.84 743.603 683.27 744.215 680.777Z" fill="#F5E3DB"/>
<path d="M296.831 674.435C299.712 674.615 301.303 671.037 299.124 668.951L298.908 668.089C298.936 668.02 298.965 667.951 298.994 667.883C301.906 660.937 311.778 660.985 314.666 667.941C317.229 674.114 320.493 680.299 321.297 686.826C321.657 689.708 321.495 692.643 320.855 695.471C326.862 682.351 330.022 668.024 330.022 653.616C330.022 649.996 329.824 646.377 329.419 642.766C329.086 639.812 328.627 636.877 328.032 633.968C324.818 618.246 317.857 603.271 307.816 590.763C302.99 588.125 298.965 584 296.533 579.057C295.66 577.274 294.976 575.356 294.651 573.402C295.201 573.474 296.723 565.108 296.308 564.595C297.074 563.433 298.444 562.856 299.28 561.723C303.438 556.085 309.166 557.07 312.157 564.73C318.545 567.954 318.607 573.302 314.687 578.444C312.193 581.716 311.851 586.143 309.662 589.646C309.888 589.934 310.122 590.214 310.347 590.502C314.475 595.797 318.046 601.488 321.055 607.467C320.205 600.822 321.461 592.817 323.602 587.656C326.039 581.777 330.607 576.825 334.63 571.742C339.463 565.636 349.372 568.301 350.223 576.04C350.231 576.115 350.239 576.19 350.247 576.265C349.649 576.602 349.064 576.96 348.492 577.339C345.231 579.496 346.358 584.552 350.223 585.148L350.31 585.162C350.094 587.314 349.725 589.448 349.184 591.546C354.345 611.505 343.203 618.774 327.294 619.101C326.943 619.281 326.6 619.461 326.249 619.632C327.861 624.171 329.149 628.826 330.103 633.545C330.959 637.714 331.553 641.928 331.886 646.16C332.3 651.5 332.264 656.867 331.814 662.198L331.841 662.009C332.985 656.138 336.172 650.654 340.801 646.854C347.696 641.19 357.437 639.104 364.876 634.551C368.457 632.36 373.045 635.192 372.42 639.343C372.41 639.409 372.4 639.476 372.39 639.542C371.282 639.992 370.202 640.515 369.157 641.1C368.56 641.437 367.974 641.795 367.402 642.173C364.141 644.33 365.268 649.387 369.133 649.983L369.22 649.996C369.283 650.006 369.337 650.015 369.4 650.024C367.5 654.535 364.853 658.722 361.539 662.333C358.312 679.756 344.452 681.409 329.626 676.336H329.617C327.996 683.395 325.628 690.293 322.584 696.866H297.461C297.371 696.587 297.29 696.299 297.209 696.02C299.532 696.164 301.873 696.029 304.16 695.606C302.296 693.319 300.432 691.013 298.568 688.726C298.523 688.681 298.487 688.636 298.451 688.591C297.506 687.421 296.551 686.259 295.606 685.088L295.605 685.087C295.546 681.493 295.978 677.911 296.831 674.435Z" fill="#F5E3DB"/>
<path d="M161.215 680.777C163.281 680.907 164.423 678.34 162.86 676.844L162.704 676.226C162.725 676.176 162.745 676.127 162.766 676.077C164.855 671.095 171.936 671.13 174.007 676.119C175.846 680.547 178.187 684.983 178.763 689.665C179.022 691.732 178.905 693.837 178.447 695.865C182.755 686.455 185.022 676.179 185.022 665.845C185.022 663.248 184.88 660.652 184.589 658.062C184.35 655.943 184.021 653.838 183.594 651.751C181.289 640.474 176.296 629.733 169.094 620.762C165.632 618.869 162.745 615.911 161.001 612.365C160.375 611.086 159.884 609.711 159.651 608.309C160.045 608.361 161.137 602.36 160.84 601.992C161.389 601.159 162.372 600.745 162.971 599.932C165.954 595.889 170.062 596.594 172.207 602.089C176.79 604.402 176.834 608.237 174.022 611.926C172.234 614.273 171.988 617.448 170.418 619.961C170.58 620.167 170.748 620.368 170.909 620.574C173.87 624.372 176.431 628.454 178.59 632.743C177.98 627.977 178.881 622.235 180.417 618.533C182.165 614.316 185.442 610.764 188.327 607.118C191.793 602.739 198.9 604.65 199.511 610.202C199.517 610.255 199.523 610.309 199.528 610.363C199.1 610.605 198.68 610.862 198.27 611.133C195.93 612.68 196.739 616.307 199.511 616.735L199.574 616.744C199.419 618.288 199.154 619.819 198.766 621.324C202.468 635.639 194.476 640.854 183.065 641.088C182.813 641.217 182.567 641.346 182.316 641.469C183.472 644.724 184.395 648.063 185.08 651.448C185.694 654.438 186.12 657.461 186.359 660.497C186.656 664.327 186.63 668.176 186.307 672L186.326 671.864C187.147 667.653 189.433 663.72 192.753 660.994C197.699 656.931 204.686 655.435 210.021 652.17C212.59 650.598 215.881 652.629 215.433 655.607L215.411 655.749C214.616 656.072 213.841 656.447 213.092 656.867C212.663 657.109 212.244 657.365 211.833 657.637C209.494 659.184 210.302 662.811 213.074 663.238L213.137 663.248C213.182 663.255 213.221 663.261 213.266 663.268C211.904 666.503 210.005 669.507 207.628 672.097C205.313 684.594 195.372 685.78 184.738 682.14H184.731C183.569 687.204 181.87 692.152 179.687 696.867H161.667C161.602 696.666 161.544 696.46 161.486 696.259C163.152 696.363 164.831 696.266 166.472 695.962C165.135 694.322 163.798 692.668 162.461 691.028C162.429 690.995 162.403 690.963 162.377 690.931C161.699 690.091 161.014 689.258 160.336 688.418L160.336 688.417C160.293 685.84 160.603 683.27 161.215 680.777Z" fill="#F2F2F2"/>
<path d="M245.424 383.618C245.424 383.618 231.845 354.711 227.289 365.067C224.325 371.806 205.554 405.838 205.453 419.572C205.403 426.411 211.221 431.822 218.04 431.291L274.627 426.884L272.461 411.302L227.659 414.737L245.424 383.618Z" fill="#A0616A"/>
<path d="M269.099 421.765C271.937 427.136 278.592 429.189 283.963 426.351C289.335 423.513 291.388 416.858 288.55 411.486C285.712 406.115 279.057 404.062 273.685 406.9C268.314 409.738 266.26 416.393 269.099 421.765Z" fill="#A0616A"/>
<path d="M244.429 457.219L254.287 489.37L209.429 494.219L225.429 453.219L244.429 457.219Z" fill="#A0616A"/>
<path d="M255.408 432.339C254.338 439.979 254.088 447.199 255.428 451.219C255.784 452.288 261.12 460.102 261.428 461.219C264.182 471.203 252.428 473.219 252.428 473.219L207.335 488.19C204.739 489.052 202.553 486.044 204.212 483.869C207.91 479.018 211.289 472.011 211.048 462.729C210.673 448.266 204.272 425.264 200.734 413.568C199.278 408.755 199.629 403.583 201.714 399.007L206.748 387.959L214.068 371.909L216.428 360.219L237.428 361.219L240.018 370.729L259.558 400.559C260.348 401.769 260.868 403.119 261.098 404.509C261.408 406.249 261.258 408.069 260.648 409.779C258.618 415.469 256.548 424.139 255.408 432.339Z" fill="#F9A826"/>
<path d="M197.058 347.616C205.448 358.076 190.568 374.916 199.688 384.746C197.938 385.446 196.068 385.716 194.188 385.626C194.098 385.306 193.998 384.986 193.898 384.676C193.088 382.156 192.008 379.726 190.658 377.446C190.918 379.926 190.718 382.466 190.058 384.876C188.648 384.446 187.288 383.826 186.028 383.066C185.868 382.976 185.728 382.886 185.568 382.776C181.448 375.086 179.858 366.036 181.308 357.436C178.528 361.446 175.848 365.656 174.368 370.286C169.358 362.366 165.878 353.336 166.098 344.016C166.318 333.646 171.898 323.006 181.378 318.786C185.288 317.046 189.928 316.266 192.658 312.966C194.128 311.206 194.828 308.946 195.888 306.906C196.948 304.866 198.598 302.886 200.878 302.556C202.238 302.366 203.688 303.116 204.438 304.196C200.748 308.236 200.958 314.796 202.158 320.306C203.438 326.226 207.308 333.566 203.358 338.156C200.928 340.986 189.028 337.616 197.058 347.616Z" fill="#2F2E41"/>
<path d="M245.882 338.688C245.34 336.793 249.074 348.381 247.272 348.591C239.067 349.532 227.803 354.432 222.088 356.718C221.831 356.689 221.573 356.659 221.324 356.621C220.71 356.554 220.112 356.457 219.522 356.345C206.215 353.827 201.098 333.386 201.098 333.199C201.098 332.28 203.303 307.041 206.778 306.667C207.678 306.57 208.594 306.518 209.525 306.518H218.147C219.979 306.129 221.795 305.86 223.559 305.733H223.574C248.426 302.899 260.425 313.819 253.337 327.863C253.33 327.878 253.315 327.893 253.307 327.908C252.936 328.461 252.611 328.983 252.323 329.484C252.043 329.955 251.808 330.403 251.604 330.829C250.022 334.116 254.088 338.253 251.392 339.025C247.806 340.052 260.824 373.803 246.629 373.803C253.534 375.766 247.376 343.918 245.882 338.688Z" fill="#2F2E41"/>
<path d="M230.387 358.492C241.661 358.492 250.8 349.353 250.8 338.08C250.8 326.806 241.661 317.667 230.387 317.667C219.114 317.667 209.975 326.806 209.975 338.08C209.975 349.353 219.114 358.492 230.387 358.492Z" fill="#A0616A"/>
<path d="M253.337 328.977C252.998 329.156 252.667 329.316 252.327 329.486C251.967 329.656 251.607 329.826 251.258 329.986C248.977 331.016 246.837 331.746 244.878 332.076C244.327 330.357 243.587 328.696 242.667 327.136C242.847 328.866 242.697 330.636 242.227 332.316C239.498 332.266 237.207 331.236 235.477 328.977C235.387 326.646 234.868 324.326 233.928 322.176C234.107 324.556 233.447 326.986 232.128 328.977L232.477 356.966C225.477 361.616 240.597 377.296 238.477 380.966C237.868 380.896 217.077 354.856 216.488 354.746C203.178 352.227 194.727 330.306 195.808 329.066C195.808 325.417 196.657 321.976 198.178 318.896C200.147 314.896 203.238 311.536 207.068 309.227C209.318 308.136 211.697 307.246 214.168 306.566C214.228 306.546 214.277 306.536 214.337 306.516C215.087 306.316 215.857 306.126 216.618 305.977C218.188 305.646 219.777 305.396 221.397 305.246C221.517 305.236 221.628 305.236 221.738 305.236C222.397 305.236 223.017 305.417 223.558 305.736H223.577C223.967 305.977 224.318 306.276 224.587 306.646C225.058 307.246 225.327 307.986 225.327 308.806H232.897C233.178 308.806 233.457 308.806 233.738 308.826C244.288 309.246 252.758 317.536 253.308 327.906C253.328 328.266 253.337 328.616 253.337 328.977Z" fill="#2F2E41"/>
<path d="M222.154 309.003C222.154 316.43 216.133 322.451 208.706 322.451C201.279 322.451 195.258 316.43 195.258 309.003C195.258 301.575 201.279 295.555 208.706 295.555C216.133 295.555 222.154 301.575 222.154 309.003Z" fill="#2F2E41"/>
<path d="M849.478 609.053V569.88C854.757 567.712 858.478 562.527 858.478 556.466C858.478 550.406 854.757 545.22 849.478 543.053V526.466C849.478 524.533 847.911 522.966 845.978 522.966C844.045 522.966 842.478 524.533 842.478 526.466V541.966C701.713 546.99 562.105 551.758 488.478 541.966V526.466C488.478 524.533 486.911 522.966 484.978 522.966C483.045 522.966 481.478 524.533 481.478 526.466V541.966H129.478V526.466C129.478 524.533 127.911 522.966 125.978 522.966C124.045 522.966 122.478 524.533 122.478 526.466V542.687C116.674 544.582 112.478 550.03 112.478 556.466C112.478 562.902 116.674 568.351 122.478 570.246V608.687C116.674 610.582 112.478 616.03 112.478 622.466C112.478 628.902 116.674 634.351 122.478 636.246V693.466C122.478 695.399 124.045 696.966 125.978 696.966C127.911 696.966 129.478 695.399 129.478 693.466V636.966H481.478V693.466C481.478 695.399 483.045 696.966 484.978 696.966C486.911 696.966 488.478 695.399 488.478 693.466V636.966H842.478V693.466C842.478 695.399 844.045 696.966 845.978 696.966C847.911 696.966 849.478 695.399 849.478 693.466V635.88C854.757 633.712 858.478 628.527 858.478 622.466C858.478 616.406 854.757 611.22 849.478 609.053ZM129.478 570.966C266.425 559.839 400.422 550.384 481.478 570.966C473.99 583.412 473.85 595.748 481.478 607.966C388.065 618.993 263.053 615.454 129.478 607.966C133.679 596.988 132.904 584.405 129.478 570.966ZM488.478 607.966V570.966H842.478C827.657 582.97 825.403 595.253 842.478 607.966C773.969 631.369 621.476 615.059 488.478 607.966Z" fill="#F5E3DB"/>
<path d="M243.477 400.966C243.477 400.966 221.591 377.708 220.477 388.966C219.753 396.293 212.481 434.472 216.652 447.558C218.729 454.074 225.94 457.41 232.256 454.787L284.675 433.021L277.776 418.883L236.258 436.065L243.477 400.966Z" fill="#A0616A"/>
<path d="M285.478 432.967C291.553 432.967 296.478 428.042 296.478 421.967C296.478 415.892 291.553 410.967 285.478 410.967C279.402 410.967 274.478 415.892 274.478 421.967C274.478 428.042 279.402 432.967 285.478 432.967Z" fill="#A0616A"/>
<path d="M82.9746 698.274C82.9746 698.934 83.5046 699.464 84.1647 699.464H867.455C868.115 699.464 868.645 698.934 868.645 698.274C868.645 697.614 868.115 697.084 867.455 697.084H84.1647C83.5046 697.084 82.9746 697.614 82.9746 698.274Z" fill="#F5E3DB"/>
<path d="M230.324 665.547L238.37 671.504L265.175 643.305L253.3 634.513L230.324 665.547Z" fill="#A0616A"/>
<path d="M240.511 674.211L244.549 668.756L242.338 667.319L233.351 661.455L231.267 660.102L216.219 677.241L215.412 678.16L221.125 682.389L222.028 681.553L226.131 677.747L225 683.753L224.75 685.073L239.895 696.287C240.8 696.957 241.884 697.213 242.923 697.076C244.041 696.945 245.098 696.37 245.818 695.398C248.668 692.886 240.852 677.106 240.511 674.211Z" fill="#2F2E41"/>
<path d="M328.429 581.219L326.398 583.549L320.499 590.309L257.429 662.219L236.429 648.219C252.209 618.139 262.359 599.649 279.398 586.769C284.119 583.199 289.379 580.059 295.429 577.219C295.429 577.219 277.949 570.839 257.549 562.989C255.759 562.299 253.939 561.599 252.109 560.879C235.239 554.329 217.289 547.099 205.999 541.789C199.129 538.559 195.449 533.389 193.959 527.449C189.669 510.519 203.029 487.279 210.429 484.609L254.429 483.219L259.859 516.719L260.429 520.219C260.429 520.219 276.549 528.009 293.469 535.799C296.009 536.959 298.559 538.129 301.079 539.269C305.079 541.069 308.979 542.809 312.599 544.379C312.681 544.415 312.764 544.451 312.847 544.487C323.338 549.018 329.868 559.631 329.108 571.034L328.429 581.219Z" fill="#2F2E41"/>
<path d="M289.298 430.829C289.677 430.829 290.052 430.754 290.395 430.608L351.533 432C352.002 431.802 352.392 431.481 352.653 431.081C352.914 430.68 353.032 430.218 352.993 429.756C352.953 429.295 352.757 428.854 352.431 428.494C352.106 428.133 351.665 427.869 351.167 427.737L311.169 417.095C310.755 416.985 310.316 416.97 309.894 417.052L248.024 423.781C247.476 423.886 246.982 424.149 246.618 424.528C246.253 424.908 246.038 425.383 246.005 425.882C245.971 426.381 246.122 426.876 246.433 427.291C246.745 427.707 247.2 428.02 247.73 428.183L288.46 430.704C288.73 430.787 289.013 430.829 289.298 430.829Z" fill="#3F3D56"/>
<path d="M292.111 430.384C293.071 430.383 294.022 430.22 294.908 429.903L351.561 431C353.056 430.471 354.297 429.529 355.084 428.327C355.87 427.125 356.156 425.734 355.895 424.377L358 382.154C357.721 380.646 356.785 379.281 355.379 378.33C353.972 377.378 352.196 376.909 350.401 377.015L297.805 378.866C296.795 378.922 295.811 379.158 294.915 379.558C294.02 379.957 293.234 380.512 292.607 381.187C291.981 381.861 291.529 382.64 291.28 383.472C291.031 384.304 290.991 385.171 291.162 386.018L285 425.292C285.29 426.715 286.162 428.006 287.462 428.937C288.763 429.869 290.409 430.381 292.111 430.384Z" fill="#3F3D56"/>
</g>
<defs>
<clipPath id="clip0_10_251">
<rect width="868.644" height="699.464" fill="white"/>
</clipPath>
</defs>
</svg>
